<?xml version="1.0" standalone="no"?>
<svg viewBox="0 0 200 200" xmlns="http://www.w3.org/2000/svg">
  <path fill="#3B82F6" d="M36.9,-64.4C48.2,-57.5,57.8,-48.2,62.2,-37.1C66.5,-25.9,65.7,-13,66.7,0.6C67.7,14.1,70.5,28.2,65,37.4C59.5,46.6,45.6,50.8,33.4,58.1C21.2,65.4,10.6,75.8,-1.5,78.3C-13.5,80.8,-27,75.5,-38.6,67.8C-50.2,60.2,-59.8,50.1,-64.2,38.4C-68.7,26.7,-68.1,13.4,-70.3,-1.3C-72.6,-16,-77.8,-31.9,-73.3,-43.7C-68.9,-55.4,-54.8,-63,-41,-68.3C-27.1,-73.7,-13.6,-76.9,-0.4,-76.3C12.9,-75.7,25.7,-71.2,36.9,-64.4Z" transform="translate(100 100)" />
</svg>
